:SAMPLES-PER-SECOND 30
:FULLY-SPECIFIED
:DEGREES
224
root  -4.02703 38.9917 -3.00588 -3.14245 -9.89869 -4.5511
RightUpLeg  -4.94089 0.260359 8.45475
RightLeg  17.0819 -4.0476 -3.25749
RightFoot  -9.90868 0.0507383 -0.801377
RightToes  1.74624e-010 -3.18055e-015 -2.98177e-016
Spine  0.360556 -1.10981 7.02459
Spine1  9.74784 -2.13143 6.91074
HEad  7.79041 8.94137 -6.70697
LeftShoulder1  -3.88251e-019 9.70628e-020 -3.87848e-018
LeftArm  -37.1601 60.6059 -77.3289
LeftForeArm  -5.00184 -9.66746 -1.12999
LeftHand  -1.11556 -4.11448 14.3946
RightShoulder  7.3942 10.3181 35.3251
RightArm  14.6723 -44.7532 17.3893
RightForeArm  2.09944 20.8608 -10.8969
RightHand  -0.943977 3.13361 -12.7288
LeftUpLeg  -9.29776 3.30469 6.75152
LeftLeg  25.1377 -3.2151 6.30919
LeftFoot  -14.1558 -0.103651 -7.07926
LeftToes  7.37594e-011 2.64622e-011 -6.25182e-011
225
root  -3.66596 38.9981 -2.95028 -3.33869 -10.4967 -4.64755
RightUpLeg  -4.84438 0.146013 7.99706
RightLeg  17.2033 -3.19615 -3.22763
RightFoot  -9.65985 0.0378656 -0.358697
RightToes  1.74624e-010 -3.18055e-015 -2.98177e-016
Spine  0.55844 -1.05079 7.47845
Spine1  10.0775 -1.9581 6.37678
HEad  7.83601 9.54153 -7.70178
LeftShoulder1  -3.88251e-019 9.70628e-020 -3.87848e-018
LeftArm  -37.7465 60.7813 -77.7987
LeftForeArm  -5.51452 -10.7314 -0.990635
LeftHand  -1.13318 -4.12931 14.5918
RightShoulder  7.45178 10.355 35.5365
RightArm  13.6199 -44.0888 17.1117
RightForeArm  5.2571 19.8931 -10.0653
RightHand  -0.970628 3.6305 -12.3835
LeftUpLeg  -8.94702 5.37139 6.51369
LeftLeg  25.3607 -4.21275 5.83919
LeftFoot  -14.4731 -0.114199 -6.20182
LeftToes  7.37594e-011 2.64622e-011 -6.25182e-011
226
root  -3.28711 38.9969 -2.89743 -3.41605 -10.3229 -4.51281
RightUpLeg  -5.10441 -0.358363 7.20077
RightLeg  17.6848 -2.67415 -3.38287
RightFoot  -9.57443 0.0213194 0.158432
RightToes  1.74624e-010 -3.18055e-015 -2.98177e-016
Spine  0.490402 -1.22472 6.48261
Spine1  10.3608 -2.41694 7.29035
HEad  8.65854 10.2679 -8.62979
LeftShoulder1  -3.88251e-019 9.70628e-020 -3.87848e-018
LeftArm  -38.1992 60.8443 -78.5827
LeftForeArm  -5.92683 -11.7862 -0.933598
LeftHand  -1.12391 -4.17359 14.4086
RightShoulder  7.43293 10.3417 35.4701
RightArm  12.273 -43.5291 16.7722
RightForeArm  7.77414 19.1013 -9.40826
RightHand  -1.01743 3.93949 -12.5602
LeftUpLeg  -9.02456 5.16756 5.639
LeftLeg  25.434 -4.21704 5.85311
LeftFoot  -13.9752 -0.0739272 -4.57721
LeftToes  7.37594e-011 2.64622e-011 -6.25182e-011
227
root  -2.88412 39.0086 -2.85932 -3.69382 -9.94777 -4.06856
RightUpLeg  -5.3044 -1.58146 5.98905
RightLeg  18.2841 -1.61558 -3.48865
RightFoot  -9.5763 0.000811201 0.802148
RightToes  1.74624e-010 -3.18055e-015 -2.98177e-016
Spine  0.564669 -1.41668 4.7444
Spine1  10.7617 -3.00004 8.54495
HEad  9.75193 10.7206 -9.24574
LeftShoulder1  -3.88251e-019 9.70628e-020 -3.87848e-018
LeftArm  -37.5392 60.3157 -78.7916
LeftForeArm  -5.09128 -12.3625 -1.14969
LeftHand  -1.146 -4.52876 14.1545
RightShoulder  7.35375 10.2849 35.1925
RightArm  11.1236 -43.3984 16.4371
RightForeArm  7.31145 18.9043 -9.33664
RightHand  -1.01921 3.75442 -12.8284
LeftUpLeg  -8.94621 2.47881 4.07834
LeftLeg  25.2511 -2.08999 6.92294
LeftFoot  -13.0214 -0.0330609 -3.01832
LeftToes  7.37594e-011 2.64622e-011 -6.25182e-011
228
root  -2.44111 39.035 -2.83779 -4.22146 -10.0455 -3.22611
RightUpLeg  -5.4847 -3.7901 4.36178
RightLeg  18.9791 0.966214 -3.50524
RightFoot  -9.56335 -0.0211828 1.48155
RightToes  1.74624e-010 -3.18055e-015 -2.98177e-016
Spine  0.931073 -1.44474 3.15291
Spine1  11.2581 -3.19414 8.84197
HEad  10.5496 10.8843 -9.34371
LeftShoulder1  -3.88251e-019 9.70628e-020 -3.87848e-018
LeftArm  -35.8748 59.3119 -78.0375
LeftForeArm  -3.0582 -12.6895 -1.4735
LeftHand  -1.18041 -4.9459 13.9758
RightShoulder  7.28947 10.2362 34.9713
RightArm  9.96435 -43.5935 16.1792
RightForeArm  4.9883 19.1069 -9.62578
RightHand  -0.947728 3.09733 -12.8259
LeftUpLeg  -8.34205 -0.894536 1.92574
LeftLeg  24.7421 1.45896 8.57433
LeftFoot  -12.123 -0.0154463 -2.00268
LeftToes  7.37594e-011 2.64622e-011 -6.25182e-011
229
root  -1.9642 39.0803 -2.83345 -4.73472 -10.9009 -1.87118
RightUpLeg  -6.02383 -6.83696 2.37297
RightLeg  19.696 5.15494 -3.47174
RightFoot  -9.36323 -0.0363199 1.83473
RightToes  1.74624e-010 -3.18055e-015 -2.98177e-016
Spine  1.29339 -1.25338 1.80567
Spine1  11.78 -2.86419 7.72807
HEad  10.8034 11.0211 -9.04223
LeftShoulder1  -3.88251e-019 9.70628e-020 -3.87848e-018
LeftArm  -34.1354 58.2008 -76.6637
LeftForeArm  -1.21897 -13.1536 -1.58368
LeftHand  -1.18844 -5.10188 13.8581
RightShoulder  7.28349 10.2345 34.9441
RightArm  9.02599 -43.9146 16.0153
RightForeArm  2.56462 19.5067 -10.0249
RightHand  -0.847688 2.26491 -12.6897
LeftUpLeg  -7.35564 -2.37653 -0.637719
LeftLeg  23.6381 4.15913 9.48812
LeftFoot  -11.3694 -0.0127246 -1.1962
LeftToes  7.37594e-011 2.64622e-011 -6.25182e-011
230
root  -1.47521 39.1282 -2.85766 -5.11353 -12.3526 -0.0623871
RightUpLeg  -7.1479 -9.40642 0.0899823
RightLeg  20.5923 9.4171 -3.28777
RightFoot  -9.01235 -0.0477091 1.95509
RightToes  1.74624e-010 -3.18055e-015 -2.98177e-016
Spine  1.56876 -0.931226 0.331303
Spine1  12.2682 -2.24624 5.83406
HEad  10.4755 11.3393 -8.82089
LeftShoulder1  -3.88251e-019 9.70628e-020 -3.87848e-018
LeftArm  -32.8896 57.0738 -75.1298
LeftForeArm  -1.04981 -13.7465 -1.42733
LeftHand  -1.18121 -4.97663 13.9442
RightShoulder  7.30127 10.2567 34.986
RightArm  8.67708 -44.1787 16.1289
RightForeArm  0.457176 20.032 -10.4234
RightHand  -0.791088 1.63415 -12.8725
LeftUpLeg  -6.38972 -1.19988 -3.32134
LeftLeg  22.0168 5.00353 9.25034
LeftFoot  -10.7151 -0.0247217 -0.205427
LeftToes  7.37594e-011 2.64622e-011 -6.25182e-011
231
root  -0.979365 39.1377 -2.9188 -5.54135 -14.0028 1.84193
RightUpLeg  -8.68974 -10.3494 -2.46177
RightLeg  22.1547 12.2924 -2.56326
RightFoot  -8.6948 -0.0683561 2.3082
RightToes  1.74624e-010 -3.18055e-015 -2.98177e-016
Spine  2.06851 -0.672417 -1.1496
Spine1  12.7369 -1.66963 3.99532
HEad  9.4772 11.8226 -9.03879
LeftShoulder1  -3.88251e-019 9.70628e-020 -3.87848e-018
LeftArm  -31.8904 55.7881 -73.5494
LeftForeArm  -2.78167 -14.247 -1.22733
LeftHand  -1.16351 -4.6085 14.2504
RightShoulder  7.28687 10.2562 34.913
RightArm  8.56042 -44.2695 16.8275
RightForeArm  -1.19566 20.536 -10.7547
RightHand  -0.794585 1.3773 -13.3974
LeftUpLeg  -5.69739 1.2177 -5.8673
LeftLeg  20.5845 4.97828 8.69036
LeftFoot  -10.2579 -0.0504309 0.925029
LeftToes  7.37594e-011 2.64622e-011 -6.25182e-011
232
root  -0.470174 39.0932 -3.00486 -6.11435 -15.6603 3.48795
RightUpLeg  -10.4426 -11.0861 -4.90263
RightLeg  24.4203 15.0174 -1.28037
RightFoot  -8.26499 -0.0967523 2.73029
RightToes  1.74624e-010 -3.18055e-015 -2.98177e-016
Spine  2.92368 -0.580506 -2.13852
Spine1  13.2344 -1.23193 2.33399
HEad  7.72497 12.3295 -9.63011
LeftShoulder1  -3.88251e-019 9.70628e-020 -3.87848e-018
LeftArm  -30.7194 54.3033 -71.8759
LeftForeArm  -5.30918 -14.5301 -1.14368
LeftHand  -1.10859 -4.02655 14.4397
RightShoulder  7.24117 10.2325 34.7303
RightArm  8.22972 -44.177 18.0617
RightForeArm  -1.62877 20.8834 -11.0016
RightHand  -0.823382 1.51836 -13.6105
LeftUpLeg  -5.32156 3.21499 -8.15533
LeftLeg  19.7982 5.35188 8.54037
LeftFoot  -10.0743 -0.0775339 1.91628
LeftToes  7.37594e-011 2.64622e-011 -6.25182e-011
233
root  0.0348604 39.0071 -3.0893 -6.61539 -17.5356 4.76943
RightUpLeg  -12.4391 -11.774 -6.78924
RightLeg  26.9398 17.6815 0.203901
RightFoot  -7.52376 -0.115018 2.69458
RightToes  1.74624e-010 -3.18055e-015 -2.98177e-016
Spine  3.82866 -0.556075 -2.53082
Spine1  13.6803 -0.785227 0.554372
HEad  5.4412 12.8215 -10.4201
LeftShoulder1  -3.88251e-019 9.70628e-020 -3.87848e-018
LeftArm  -29.4556 52.7509 -70.2572
LeftForeArm  -7.14025 -14.4971 -1.15424
LeftHand  -1.06334 -3.64217 14.4635
RightShoulder  7.21405 10.2271 34.6025
RightArm  7.97727 -43.9376 19.3572
RightForeArm  -0.703551 21.103 -11.2026
RightHand  -0.851096 2.00358 -13.1762
LeftUpLeg  -5.39582 4.6305 -10.0996
LeftLeg  19.673 6.20823 8.82175
LeftFoot  -10.1412 -0.0947079 2.61652
LeftToes  7.37594e-011 2.64622e-011 -6.25182e-011
234
root  0.497467 38.9058 -3.15466 -6.76529 -19.7526 5.54712
RightUpLeg  -14.5109 -12.0739 -7.77487
RightLeg  28.8656 19.6496 1.50569
RightFoot  -6.81287 -0.138089 2.74287
RightToes  1.74624e-010 -3.18055e-015 -2.98177e-016
Spine  4.45749 -0.497173 -2.52673
Spine1  13.9222 -0.295568 -1.15094
HEad  3.18858 13.3605 -11.433
LeftShoulder1  -3.88251e-019 9.70628e-020 -3.87848e-018
LeftArm  -28.4473 51.2912 -68.972
LeftForeArm  -7.39494 -14.0411 -1.21046
LeftHand  -1.14263 -4.05361 14.8217
RightShoulder  7.23216 10.2576 34.6281
RightArm  8.09502 -43.5872 20.3786
RightForeArm  0.349208 21.2362 -11.3353
RightHand  -0.88555 2.55941 -12.7734
LeftUpLeg  -6.07756 5.99556 -11.4509
LeftLeg  20.1682 7.13729 9.38261
LeftFoot  -10.4362 -0.0995895 3.08214
LeftToes  7.37594e-011 2.64622e-011 -6.25182e-011
